<?xml version="1.0" encoding="UTF-8"?><svg id="Layer_1" xmlns="http://www.w3.org/2000/svg" viewBox="0 0 800 194.51"><path d="m21.86,12.05h5.14l21.3,56.26h-4.82l-6.11-16.4H11.33l-6.19,16.4H.48L21.86,12.05Zm13.9,35.52L22.99,13.1h2.81l-12.86,34.48h22.83Z"/><path d="m65.46,82.98c-1.9-.56-3.54-1.35-4.9-2.37-1.37-1.02-2.43-2.25-3.17-3.7-.75-1.45-1.12-3.08-1.12-4.9v-.48h4.26v.48c0,1.12.28,2.17.84,3.13.56.96,1.35,1.81,2.37,2.53,1.02.72,2.21,1.3,3.58,1.73s2.91.64,4.62.64c2.52,0,4.62-.34,6.31-1,1.69-.67,3.05-1.61,4.1-2.81,1.04-1.21,1.77-2.68,2.17-4.42.4-1.74.6-3.71.6-5.91v-6.03h-.08c-.64,1.77-1.49,3.26-2.53,4.46-1.04,1.21-2.21,2.17-3.5,2.89-1.29.72-2.67,1.23-4.14,1.53-1.47.29-2.96.44-4.46.44-2.95,0-5.52-.52-7.72-1.57-2.2-1.04-3.99-2.52-5.39-4.42-1.39-1.9-2.42-4.15-3.09-6.75-.67-2.6-1-5.43-1-8.48v-.48c0-3.16.35-6.08,1.04-8.76.7-2.68,1.77-5,3.21-6.95,1.45-1.96,3.25-3.47,5.42-4.54,2.17-1.07,4.67-1.61,7.51-1.61,1.45,0,2.89.13,4.34.4,1.45.27,2.81.74,4.1,1.41,1.29.67,2.46,1.58,3.54,2.73,1.07,1.15,1.96,2.61,2.65,4.38h.08v-8.04h4.26v39.86c0,2.89-.35,5.41-1.04,7.55-.7,2.14-1.78,3.95-3.25,5.42-1.47,1.47-3.32,2.58-5.55,3.34-2.22.75-4.81,1.12-7.76,1.12-2.3,0-4.41-.28-6.31-.84Zm12.58-19.21c1.77-1.1,3.19-2.52,4.26-4.26,1.07-1.74,1.81-3.68,2.21-5.83.4-2.14.6-4.29.6-6.43v-.48c0-2.2-.23-4.31-.68-6.35-.46-2.04-1.22-3.88-2.29-5.55-1.07-1.66-2.51-2.99-4.3-3.98-1.8-.99-4.06-1.49-6.79-1.49s-4.8.55-6.51,1.65c-1.72,1.1-3.08,2.52-4.1,4.26-1.02,1.74-1.73,3.67-2.13,5.79-.4,2.12-.6,4.22-.6,6.31v.48c0,2.14.2,4.25.6,6.31.4,2.06,1.14,3.93,2.21,5.59,1.07,1.66,2.48,3.01,4.22,4.06,1.74,1.04,3.92,1.57,6.55,1.57s4.98-.55,6.75-1.65Z"/><path d="m110.23,67.63c-2.38-1.04-4.37-2.53-5.95-4.46-1.58-1.93-2.75-4.23-3.5-6.91-.75-2.68-1.12-5.65-1.12-8.92v-.48c0-3.11.37-5.96,1.12-8.56.75-2.6,1.9-4.83,3.46-6.71,1.55-1.88,3.5-3.34,5.83-4.38,2.33-1.04,5.02-1.57,8.08-1.57,2.68,0,5.12.47,7.31,1.41,2.2.94,4.06,2.22,5.59,3.86,1.53,1.64,2.71,3.62,3.54,5.95.83,2.33,1.25,4.89,1.25,7.68v3.94h-33.43v-3.78h29.09v-.8c0-2.36-.35-4.43-1.04-6.23-.7-1.79-1.65-3.29-2.85-4.5-1.21-1.21-2.63-2.13-4.26-2.77-1.64-.64-3.36-.96-5.18-.96-2.36,0-4.41.4-6.15,1.21-1.74.8-3.2,1.93-4.38,3.38-1.18,1.45-2.05,3.19-2.61,5.22-.56,2.04-.84,4.31-.84,6.83v1.61c0,2.41.27,4.7.8,6.87.54,2.17,1.39,4.06,2.57,5.67,1.18,1.61,2.69,2.88,4.54,3.82,1.85.94,4.11,1.41,6.79,1.41,1.88,0,3.56-.24,5.06-.72,1.5-.48,2.77-1.12,3.82-1.93,1.04-.8,1.85-1.74,2.41-2.81.56-1.07.84-2.2.84-3.38v-.48h4.1v.48c0,1.77-.38,3.43-1.13,4.98-.75,1.55-1.85,2.89-3.29,4.02-1.45,1.12-3.17,2.01-5.18,2.65-2.01.64-4.25.96-6.71.96-3.32,0-6.18-.52-8.56-1.57Z"/><path d="m146.11,26.52h4.34v7.07h.08c.59-1.18,1.33-2.24,2.21-3.17.88-.94,1.92-1.75,3.09-2.45,1.18-.7,2.48-1.22,3.9-1.57,1.42-.35,2.99-.52,4.7-.52,2.41,0,4.49.35,6.23,1.04,1.74.7,3.16,1.72,4.26,3.05,1.1,1.34,1.92,2.97,2.45,4.9.54,1.93.8,4.15.8,6.67v26.76h-4.26v-25.32c0-2.09-.21-3.96-.64-5.63-.43-1.66-1.07-3.05-1.93-4.18-.86-1.12-1.96-2-3.3-2.61-1.34-.62-2.89-.92-4.66-.92-2.3,0-4.27.39-5.91,1.17-1.63.78-2.97,1.78-4.02,3.01-1.04,1.23-1.81,2.67-2.29,4.3-.48,1.64-.72,3.31-.72,5.02v25.16h-4.34V26.52Z"/><path d="m196.3,68.39c-1.15-.37-2.06-.91-2.73-1.61-.67-.7-1.17-1.57-1.49-2.61-.32-1.04-.48-2.24-.48-3.58v-30.06h-7.88v-4.02h7.88v-9.64h4.26v9.64h11.57v4.02h-11.57v28.53c0,1.23.13,2.25.4,3.05.27.8.64,1.42,1.13,1.85.48.43,1.06.71,1.73.84.67.13,1.43.2,2.29.2s1.85-.07,2.97-.2c1.12-.13,2.14-.31,3.05-.52v3.78c-1.02.37-2.17.62-3.46.72-1.29.11-2.41.16-3.38.16-1.72,0-3.15-.19-4.3-.56Z"/><path d="m236.53,12.05h23.07c2.52,0,4.88.23,7.07.68,2.2.46,4.11,1.26,5.75,2.41,1.63,1.15,2.92,2.71,3.86,4.66.94,1.96,1.41,4.43,1.41,7.43v.48c0,1.77-.23,3.5-.68,5.18-.46,1.69-1.19,3.24-2.21,4.66-1.02,1.42-2.26,2.64-3.74,3.66-1.47,1.02-3.25,1.74-5.34,2.17l12.54,24.92h-5.14l-12.22-24.35h-19.69v24.35h-4.66V12.05Zm22.99,27.65c2.04,0,3.87-.27,5.51-.8,1.63-.54,3.03-1.3,4.18-2.29,1.15-.99,2.04-2.22,2.65-3.7.62-1.47.92-3.17.92-5.1v-.48c0-2.09-.33-3.84-1-5.26-.67-1.42-1.61-2.54-2.81-3.38-1.21-.83-2.65-1.43-4.34-1.81-1.69-.37-3.58-.56-5.67-.56h-17.76v23.39h18.32Z"/><path d="m295.64,67.63c-2.38-1.04-4.37-2.53-5.95-4.46-1.58-1.93-2.75-4.23-3.5-6.91-.75-2.68-1.12-5.65-1.12-8.92v-.48c0-3.11.37-5.96,1.12-8.56.75-2.6,1.9-4.83,3.46-6.71,1.55-1.88,3.5-3.34,5.83-4.38,2.33-1.04,5.02-1.57,8.08-1.57,2.68,0,5.12.47,7.31,1.41,2.2.94,4.06,2.22,5.59,3.86,1.53,1.64,2.71,3.62,3.54,5.95.83,2.33,1.25,4.89,1.25,7.68v3.94h-33.43v-3.78h29.09v-.8c0-2.36-.35-4.43-1.04-6.23-.7-1.79-1.65-3.29-2.85-4.5s-2.63-2.13-4.26-2.77c-1.63-.64-3.36-.96-5.18-.96-2.36,0-4.41.4-6.15,1.21-1.74.8-3.2,1.93-4.38,3.38-1.18,1.45-2.05,3.19-2.61,5.22-.56,2.04-.84,4.31-.84,6.83v1.61c0,2.41.27,4.7.8,6.87.54,2.17,1.39,4.06,2.57,5.67,1.18,1.61,2.69,2.88,4.54,3.82,1.85.94,4.11,1.41,6.79,1.41,1.88,0,3.56-.24,5.06-.72,1.5-.48,2.77-1.12,3.82-1.93s1.85-1.74,2.41-2.81c.56-1.07.84-2.2.84-3.38v-.48h4.1v.48c0,1.77-.38,3.43-1.12,4.98-.75,1.55-1.85,2.89-3.3,4.02-1.45,1.12-3.17,2.01-5.18,2.65-2.01.64-4.25.96-6.71.96-3.32,0-6.18-.52-8.56-1.57Z"/><path d="m337.03,68.52c-1.63-.46-3.07-1.15-4.3-2.09-1.23-.94-2.22-2.14-2.97-3.62-.75-1.47-1.12-3.23-1.12-5.26v-.48c0-2.3.4-4.17,1.21-5.59.8-1.42,1.89-2.54,3.25-3.38,1.37-.83,2.89-1.43,4.58-1.81,1.69-.37,3.42-.67,5.18-.88,1.77-.21,3.51-.43,5.22-.64,1.71-.21,3.24-.54,4.58-.96,1.34-.43,2.42-1.06,3.25-1.89.83-.83,1.25-1.97,1.25-3.42v-.56c0-1.61-.27-2.95-.8-4.02-.54-1.07-1.27-1.94-2.21-2.61-.94-.67-2.08-1.15-3.42-1.45-1.34-.29-2.81-.44-4.42-.44s-3.12.15-4.54.44c-1.42.3-2.67.8-3.74,1.53-1.07.72-1.93,1.72-2.57,2.97-.64,1.26-.96,2.88-.96,4.86v.48h-4.26v-.48c0-2.52.47-4.63,1.41-6.35.94-1.71,2.16-3.11,3.66-4.18,1.5-1.07,3.23-1.85,5.18-2.33,1.96-.48,4-.72,6.15-.72s4.19.25,5.99.76c1.79.51,3.35,1.3,4.66,2.37,1.31,1.07,2.32,2.45,3.01,4.14.7,1.69,1.04,3.76,1.04,6.23l-.08,19.77c0,1.07.05,1.98.16,2.73.11.75.27,1.37.48,1.85.21.48.51.83.88,1.04.37.21.83.32,1.37.32.27,0,.55-.03.84-.08.29-.05.63-.13,1-.24v3.78c-.16.05-.35.09-.56.12-.21.03-.44.05-.68.08-.24.03-.48.05-.72.08-.24.03-.5.04-.76.04-.86,0-1.63-.12-2.33-.36-.7-.24-1.3-.63-1.81-1.17-.51-.53-.9-1.22-1.17-2.05-.27-.83-.43-1.83-.48-3.01l-.08-1.53h-.08c-.7,1.45-1.58,2.71-2.65,3.78s-2.26,1.97-3.58,2.69c-1.31.72-2.73,1.27-4.26,1.65-1.53.37-3.12.56-4.78.56s-3.39-.23-5.02-.68Zm11.81-4.1c1.74-.67,3.23-1.61,4.46-2.81,1.23-1.21,2.18-2.65,2.85-4.34.67-1.69,1-3.55,1-5.59v-9h1.45c-.32,1.23-.92,2.21-1.81,2.93-.88.72-1.96,1.29-3.21,1.69-1.26.4-2.63.7-4.1.88-1.47.19-2.99.36-4.54.52-1.55.16-3.03.38-4.42.64-1.39.27-2.65.7-3.78,1.29-1.12.59-2.01,1.38-2.65,2.37-.64.99-.96,2.32-.96,3.98v.32c0,1.18.2,2.26.6,3.25.4.99,1.02,1.85,1.85,2.57.83.72,1.85,1.29,3.05,1.69,1.21.4,2.64.6,4.3.6,2.2,0,4.17-.33,5.91-1Z"/><path d="m381.84,68.35c-2.04-.56-3.79-1.39-5.26-2.49-1.47-1.1-2.65-2.48-3.54-4.14-.88-1.66-1.33-3.56-1.33-5.71v-.48h4.26v.48c0,1.45.31,2.75.92,3.9.62,1.15,1.46,2.13,2.53,2.93,1.07.8,2.38,1.43,3.94,1.89,1.55.46,3.27.68,5.14.68,1.71,0,3.25-.15,4.62-.44,1.37-.29,2.53-.78,3.5-1.45.96-.67,1.71-1.5,2.25-2.49.54-.99.8-2.18.8-3.58v-.56c0-1.5-.39-2.72-1.17-3.66-.78-.94-1.78-1.7-3.01-2.29-1.23-.59-2.65-1.07-4.26-1.45-1.61-.37-3.23-.74-4.86-1.08-1.64-.35-3.24-.76-4.82-1.25-1.58-.48-2.99-1.14-4.22-1.97-1.23-.83-2.24-1.89-3.01-3.17-.78-1.29-1.17-2.92-1.17-4.9v-.56c0-2.04.44-3.76,1.33-5.18.88-1.42,2.05-2.54,3.5-3.38,1.45-.83,3.07-1.43,4.86-1.81,1.79-.37,3.6-.56,5.42-.56,1.93,0,3.8.23,5.63.68,1.82.46,3.44,1.15,4.86,2.09,1.42.94,2.57,2.17,3.46,3.7.88,1.53,1.33,3.39,1.33,5.59v.48h-4.26v-.48c0-1.29-.25-2.42-.76-3.42-.51-.99-1.25-1.86-2.21-2.61-.96-.75-2.13-1.31-3.5-1.69-1.37-.37-2.91-.56-4.62-.56-1.55,0-2.97.15-4.26.44-1.29.3-2.4.72-3.34,1.29-.94.56-1.66,1.29-2.17,2.17-.51.88-.76,1.94-.76,3.17v.48c0,1.45.39,2.63,1.17,3.54.78.91,1.78,1.66,3.01,2.25,1.23.59,2.64,1.07,4.22,1.45,1.58.38,3.19.75,4.82,1.12,1.63.38,3.25.8,4.86,1.29s3.03,1.14,4.26,1.97c1.23.83,2.24,1.88,3.01,3.13.78,1.26,1.17,2.88,1.17,4.86v.48c0,2.36-.46,4.31-1.37,5.87-.91,1.55-2.09,2.8-3.54,3.74-1.45.94-3.12,1.59-5.02,1.97-1.9.37-3.9.56-5.99.56-2.25,0-4.39-.28-6.43-.84Z"/><path d="m422.22,67.63c-2.33-1.04-4.29-2.52-5.87-4.42-1.58-1.9-2.77-4.17-3.58-6.79s-1.21-5.55-1.21-8.76v-.48c0-3.16.4-6.07,1.21-8.72.8-2.65,2-4.92,3.58-6.79,1.58-1.88,3.52-3.35,5.83-4.42,2.3-1.07,4.96-1.61,7.96-1.61s5.65.54,7.96,1.61c2.3,1.07,4.25,2.56,5.83,4.46,1.58,1.9,2.77,4.17,3.58,6.79.8,2.63,1.21,5.52,1.21,8.68v.48c0,3.11-.36,5.99-1.08,8.64s-1.84,4.93-3.33,6.83c-1.5,1.9-3.42,3.39-5.75,4.46s-5.1,1.61-8.32,1.61c-3,0-5.67-.52-8-1.57Zm14.35-3.54c1.71-.88,3.13-2.12,4.26-3.7,1.12-1.58,1.97-3.46,2.53-5.63.56-2.17.84-4.57.84-7.19v-.48c0-2.41-.29-4.7-.88-6.87-.59-2.17-1.46-4.06-2.61-5.67-1.15-1.61-2.61-2.87-4.38-3.78-1.77-.91-3.83-1.37-6.19-1.37-2.52,0-4.66.47-6.43,1.41-1.77.94-3.23,2.2-4.38,3.78-1.15,1.58-1.98,3.44-2.49,5.59-.51,2.14-.76,4.45-.76,6.91v.48c0,2.57.28,4.94.84,7.11.56,2.17,1.43,4.06,2.61,5.67,1.18,1.61,2.68,2.85,4.5,3.74,1.82.88,3.96,1.33,6.43,1.33s4.39-.44,6.11-1.33Z"/><path d="m458.83,26.52h4.34v7.07h.08c.59-1.18,1.33-2.24,2.21-3.17.88-.94,1.92-1.75,3.09-2.45,1.18-.7,2.48-1.22,3.9-1.57,1.42-.35,2.99-.52,4.7-.52,2.41,0,4.49.35,6.23,1.04,1.74.7,3.16,1.72,4.26,3.05,1.1,1.34,1.92,2.97,2.45,4.9.54,1.93.8,4.15.8,6.67v26.76h-4.26v-25.32c0-2.09-.21-3.96-.64-5.63-.43-1.66-1.07-3.05-1.93-4.18-.86-1.12-1.96-2-3.29-2.61-1.34-.62-2.89-.92-4.66-.92-2.3,0-4.27.39-5.91,1.17-1.63.78-2.97,1.78-4.02,3.01-1.04,1.23-1.81,2.67-2.29,4.3-.48,1.64-.72,3.31-.72,5.02v25.16h-4.34V26.52Z"/><path d="m502.79,18.65c-.59-.59-.88-1.37-.88-2.33,0-.91.28-1.66.84-2.25.56-.59,1.33-.88,2.29-.88.91,0,1.66.29,2.25.88.59.59.88,1.37.88,2.33,0,.91-.28,1.66-.84,2.25s-1.33.88-2.29.88c-.91,0-1.66-.29-2.25-.88Zm.08,7.88h4.34v41.79h-4.34V26.52Z"/><path d="m519.91,26.52h4.34v7.07h.08c.59-1.18,1.33-2.24,2.21-3.17.88-.94,1.92-1.75,3.09-2.45,1.18-.7,2.48-1.22,3.9-1.57,1.42-.35,2.99-.52,4.7-.52,2.41,0,4.49.35,6.23,1.04,1.74.7,3.16,1.72,4.26,3.05,1.1,1.34,1.92,2.97,2.45,4.9.54,1.93.8,4.15.8,6.67v26.76h-4.26v-25.32c0-2.09-.21-3.96-.64-5.63-.43-1.66-1.07-3.05-1.93-4.18-.86-1.12-1.96-2-3.29-2.61-1.34-.62-2.89-.92-4.66-.92-2.3,0-4.27.39-5.91,1.17-1.63.78-2.97,1.78-4.02,3.01-1.04,1.23-1.81,2.67-2.29,4.3-.48,1.64-.72,3.31-.72,5.02v25.16h-4.34V26.52Z"/><path d="m573.72,82.98c-1.9-.56-3.54-1.35-4.9-2.37-1.37-1.02-2.42-2.25-3.17-3.7-.75-1.45-1.12-3.08-1.12-4.9v-.48h4.26v.48c0,1.12.28,2.17.84,3.13.56.96,1.35,1.81,2.37,2.53,1.02.72,2.21,1.3,3.58,1.73s2.91.64,4.62.64c2.52,0,4.62-.34,6.31-1,1.69-.67,3.05-1.61,4.1-2.81,1.04-1.21,1.77-2.68,2.17-4.42.4-1.74.6-3.71.6-5.91v-6.03h-.08c-.64,1.77-1.49,3.26-2.53,4.46-1.04,1.21-2.21,2.17-3.5,2.89s-2.67,1.23-4.14,1.53c-1.47.29-2.96.44-4.46.44-2.95,0-5.52-.52-7.72-1.57-2.2-1.04-3.99-2.52-5.38-4.42-1.39-1.9-2.42-4.15-3.09-6.75-.67-2.6-1-5.43-1-8.48v-.48c0-3.16.35-6.08,1.04-8.76.7-2.68,1.77-5,3.21-6.95,1.45-1.96,3.25-3.47,5.43-4.54,2.17-1.07,4.67-1.61,7.51-1.61,1.45,0,2.89.13,4.34.4,1.45.27,2.81.74,4.1,1.41,1.29.67,2.46,1.58,3.54,2.73,1.07,1.15,1.96,2.61,2.65,4.38h.08v-8.04h4.26v39.86c0,2.89-.35,5.41-1.04,7.55-.7,2.14-1.78,3.95-3.26,5.42s-3.32,2.58-5.54,3.34c-2.22.75-4.81,1.12-7.76,1.12-2.3,0-4.41-.28-6.31-.84Zm12.58-19.21c1.77-1.1,3.19-2.52,4.26-4.26,1.07-1.74,1.81-3.68,2.21-5.83.4-2.14.6-4.29.6-6.43v-.48c0-2.2-.23-4.31-.68-6.35-.46-2.04-1.22-3.88-2.29-5.55-1.07-1.66-2.5-2.99-4.3-3.98-1.79-.99-4.06-1.49-6.79-1.49s-4.8.55-6.51,1.65c-1.72,1.1-3.08,2.52-4.1,4.26s-1.73,3.67-2.13,5.79c-.4,2.12-.6,4.22-.6,6.31v.48c0,2.14.2,4.25.6,6.31.4,2.06,1.14,3.93,2.21,5.59,1.07,1.66,2.48,3.01,4.22,4.06s3.92,1.57,6.55,1.57,4.98-.55,6.75-1.65Z"/><path d="m638.94,68.31l-13.5-56.26h4.74l12.54,52.72h-1.04l13.66-52.72h5.38l13.5,52.72h-1.04l12.62-52.72h4.58l-13.66,56.26h-5.87l-13.42-51.6h1.12l-13.58,51.6h-6.03Z"/><path d="m698.81,18.65c-.59-.59-.88-1.37-.88-2.33,0-.91.28-1.66.84-2.25.56-.59,1.33-.88,2.29-.88.91,0,1.66.29,2.25.88.59.59.88,1.37.88,2.33,0,.91-.28,1.66-.84,2.25s-1.33.88-2.29.88c-.91,0-1.66-.29-2.25-.88Zm.08,7.88h4.34v41.79h-4.34V26.52Z"/><path d="m723.05,68.39c-1.15-.37-2.06-.91-2.73-1.61-.67-.7-1.17-1.57-1.49-2.61-.32-1.04-.48-2.24-.48-3.58v-30.06h-7.88v-4.02h7.88v-9.64h4.26v9.64h11.57v4.02h-11.57v28.53c0,1.23.13,2.25.4,3.05.27.8.64,1.42,1.12,1.85.48.43,1.06.71,1.73.84.67.13,1.43.2,2.29.2s1.85-.07,2.97-.2c1.12-.13,2.14-.31,3.05-.52v3.78c-1.02.37-2.17.62-3.46.72-1.29.11-2.41.16-3.38.16-1.72,0-3.15-.19-4.3-.56Z"/><path d="m742.46,12.05h4.34v21.54h.08c.59-1.18,1.33-2.24,2.21-3.17.88-.94,1.92-1.75,3.09-2.45,1.18-.7,2.48-1.22,3.9-1.57,1.42-.35,3.01-.52,4.78-.52,2.41,0,4.47.35,6.19,1.04,1.71.7,3.12,1.72,4.22,3.05,1.1,1.34,1.92,2.97,2.45,4.9.54,1.93.8,4.15.8,6.67v26.76h-4.26v-25.32c0-2.09-.21-3.96-.64-5.63-.43-1.66-1.07-3.05-1.93-4.18-.86-1.12-1.94-2-3.25-2.61-1.31-.62-2.88-.92-4.7-.92-2.3,0-4.26.38-5.87,1.12-1.61.75-2.95,1.76-4.02,3.01-1.07,1.26-1.85,2.71-2.33,4.34-.48,1.64-.72,3.31-.72,5.02v25.16h-4.34V12.05Z"/><path d="m58.27,169.24c-3.03-1.42-5.52-3.43-7.47-6.03-1.96-2.6-3.4-5.68-4.34-9.24-.94-3.56-1.41-7.49-1.41-11.77v-.48c0-4.34.54-8.28,1.61-11.81,1.07-3.54,2.62-6.56,4.66-9.08,2.04-2.52,4.58-4.45,7.64-5.79,3.05-1.34,6.59-2.01,10.61-2.01,3.43,0,6.5.5,9.2,1.49,2.71.99,4.98,2.36,6.83,4.1,1.85,1.74,3.26,3.75,4.22,6.03.96,2.28,1.45,4.7,1.45,7.27v.48h-4.58v-.48c0-1.77-.33-3.52-1-5.26-.67-1.74-1.72-3.31-3.13-4.7-1.42-1.39-3.23-2.52-5.42-3.38-2.2-.86-4.8-1.29-7.8-1.29-3.27,0-6.14.6-8.6,1.81-2.46,1.21-4.5,2.88-6.11,5.02-1.61,2.15-2.79,4.72-3.54,7.72-.75,3-1.12,6.35-1.12,10.05v.48c0,3.7.36,7.07,1.08,10.13.72,3.05,1.89,5.67,3.5,7.84s3.67,3.84,6.19,5.02c2.52,1.18,5.55,1.77,9.08,1.77,3.16,0,5.91-.52,8.24-1.57,2.33-1.04,4.26-2.46,5.79-4.26,1.53-1.79,2.67-3.87,3.42-6.23.75-2.36,1.12-4.9,1.12-7.64v-1.21h-17.52v-3.94h21.86v28.05h-3.94v-11.17h-.08c-.75,2.04-1.74,3.83-2.97,5.38-1.23,1.55-2.67,2.84-4.3,3.86-1.64,1.02-3.48,1.77-5.55,2.25-2.06.48-4.33.72-6.79.72-4.18,0-7.78-.71-10.81-2.13Z"/><path d="m104.76,128.53h4.34v9.08h.08c.54-1.5,1.3-2.85,2.29-4.06.99-1.21,2.14-2.2,3.46-2.97,1.31-.78,2.77-1.38,4.38-1.81,1.61-.43,3.3-.64,5.06-.64h1.12v4.18h-1.04c-2.68,0-4.98.38-6.91,1.12-1.93.75-3.52,1.8-4.78,3.13-1.26,1.34-2.18,2.92-2.77,4.74-.59,1.82-.88,3.8-.88,5.95v23.07h-4.34v-41.79Z"/><path d="m137.35,170.52c-1.64-.46-3.07-1.15-4.3-2.09-1.23-.94-2.22-2.14-2.97-3.62-.75-1.47-1.12-3.23-1.12-5.26v-.48c0-2.3.4-4.17,1.21-5.59.8-1.42,1.89-2.54,3.25-3.38,1.37-.83,2.89-1.43,4.58-1.81,1.69-.37,3.42-.67,5.18-.88,1.77-.21,3.51-.43,5.22-.64,1.71-.21,3.24-.54,4.58-.96,1.34-.43,2.42-1.06,3.25-1.89.83-.83,1.25-1.97,1.25-3.42v-.56c0-1.61-.27-2.95-.8-4.02-.54-1.07-1.27-1.94-2.21-2.61-.94-.67-2.08-1.15-3.42-1.45-1.34-.29-2.81-.44-4.42-.44s-3.12.15-4.54.44c-1.42.3-2.67.8-3.74,1.53-1.07.72-1.93,1.72-2.57,2.97-.64,1.26-.96,2.88-.96,4.86v.48h-4.26v-.48c0-2.52.47-4.63,1.41-6.35.94-1.71,2.16-3.11,3.66-4.18,1.5-1.07,3.23-1.85,5.18-2.33,1.96-.48,4-.72,6.15-.72s4.19.25,5.99.76c1.79.51,3.35,1.3,4.66,2.37,1.31,1.07,2.32,2.45,3.01,4.14.7,1.69,1.04,3.76,1.04,6.23l-.08,19.77c0,1.07.05,1.98.16,2.73.11.75.27,1.37.48,1.85.21.48.51.83.88,1.04.37.21.83.32,1.37.32.27,0,.55-.03.84-.08.29-.05.63-.13,1-.24v3.78c-.16.05-.35.09-.56.12-.21.03-.44.05-.68.08-.24.03-.48.05-.72.08-.24.03-.5.04-.76.04-.86,0-1.64-.12-2.33-.36-.7-.24-1.3-.63-1.81-1.17-.51-.53-.9-1.22-1.17-2.05-.27-.83-.43-1.83-.48-3.01l-.08-1.53h-.08c-.7,1.45-1.58,2.71-2.65,3.78-1.07,1.07-2.26,1.97-3.58,2.69-1.31.72-2.73,1.27-4.26,1.65s-3.12.56-4.78.56-3.39-.23-5.02-.68Zm11.81-4.1c1.74-.67,3.23-1.61,4.46-2.81,1.23-1.21,2.18-2.65,2.85-4.34.67-1.69,1-3.55,1-5.59v-9h1.45c-.32,1.23-.92,2.21-1.81,2.93-.88.72-1.96,1.29-3.21,1.69-1.26.4-2.63.7-4.1.88-1.47.19-2.99.36-4.54.52-1.55.16-3.03.38-4.42.64-1.39.27-2.65.7-3.78,1.29-1.13.59-2.01,1.38-2.65,2.37-.64.99-.96,2.32-.96,3.98v.32c0,1.18.2,2.26.6,3.25.4.99,1.02,1.85,1.85,2.57.83.72,1.85,1.29,3.05,1.69,1.21.4,2.64.6,4.3.6,2.2,0,4.17-.33,5.91-1Z"/><path d="m175.09,128.53h4.34v8.52h.08c.7-1.88,1.58-3.42,2.65-4.62,1.07-1.21,2.25-2.16,3.54-2.85,1.29-.7,2.64-1.19,4.06-1.49,1.42-.29,2.88-.44,4.38-.44,3.05,0,5.68.55,7.88,1.65,2.2,1.1,3.98,2.61,5.34,4.54,1.37,1.93,2.37,4.17,3.01,6.71s.96,5.29.96,8.24v.48c0,3.32-.38,6.32-1.12,9-.75,2.68-1.85,4.98-3.3,6.91s-3.24,3.42-5.38,4.46c-2.14,1.04-4.61,1.57-7.39,1.57-1.45,0-2.89-.13-4.34-.4-1.45-.27-2.83-.74-4.14-1.41-1.31-.67-2.49-1.57-3.54-2.69-1.04-1.12-1.92-2.54-2.61-4.26h-.08v22.34h-4.34v-56.26Zm24.92,37.21c1.71-1.12,3.08-2.56,4.1-4.3,1.02-1.74,1.73-3.68,2.13-5.83.4-2.14.6-4.23.6-6.27v-.48c0-2.14-.21-4.25-.64-6.31-.43-2.06-1.17-3.91-2.21-5.54-1.04-1.63-2.44-2.97-4.18-4.02-1.74-1.04-3.95-1.57-6.63-1.57s-4.98.56-6.75,1.69-3.17,2.57-4.22,4.34c-1.04,1.77-1.77,3.75-2.17,5.95-.4,2.2-.6,4.34-.6,6.43v.48c0,2.14.23,4.25.68,6.31.45,2.06,1.23,3.9,2.33,5.5,1.1,1.61,2.54,2.89,4.34,3.86,1.79.96,4.03,1.45,6.71,1.45s4.79-.56,6.51-1.69Z"/><path d="m221.54,114.06h4.34v21.54h.08c.59-1.18,1.33-2.24,2.21-3.17.88-.94,1.92-1.75,3.09-2.45,1.18-.7,2.48-1.22,3.9-1.57,1.42-.35,3.01-.52,4.78-.52,2.41,0,4.47.35,6.19,1.04,1.71.7,3.12,1.72,4.22,3.05,1.1,1.34,1.92,2.97,2.45,4.9.54,1.93.8,4.15.8,6.67v26.76h-4.26v-25.32c0-2.09-.21-3.96-.64-5.63-.43-1.66-1.07-3.05-1.93-4.18-.86-1.12-1.94-2-3.25-2.61-1.31-.62-2.88-.92-4.7-.92-2.3,0-4.26.38-5.87,1.12-1.61.75-2.95,1.76-4.02,3.01-1.07,1.26-1.85,2.71-2.33,4.34-.48,1.64-.72,3.31-.72,5.02v25.16h-4.34v-56.26Z"/><path d="m294.11,170.32l-13.5-56.26h4.74l12.54,52.72h-1.04l13.66-52.72h5.38l13.5,52.72h-1.04l12.62-52.72h4.58l-13.66,56.26h-5.87l-13.42-51.6h1.12l-13.58,51.6h-6.03Z"/><path d="m359.25,169.64c-2.33-1.04-4.29-2.52-5.87-4.42-1.58-1.9-2.77-4.17-3.58-6.79s-1.21-5.55-1.21-8.76v-.48c0-3.16.4-6.07,1.21-8.72.8-2.65,2-4.92,3.58-6.79,1.58-1.88,3.52-3.35,5.83-4.42,2.3-1.07,4.96-1.61,7.96-1.61s5.65.54,7.96,1.61c2.3,1.07,4.25,2.56,5.83,4.46,1.58,1.9,2.77,4.17,3.58,6.79.8,2.63,1.21,5.52,1.21,8.68v.48c0,3.11-.36,5.99-1.08,8.64s-1.84,4.93-3.33,6.83c-1.5,1.9-3.42,3.39-5.75,4.46s-5.1,1.61-8.32,1.61c-3,0-5.67-.52-8-1.57Zm14.35-3.54c1.71-.88,3.13-2.12,4.26-3.7,1.12-1.58,1.97-3.46,2.53-5.63.56-2.17.84-4.57.84-7.19v-.48c0-2.41-.29-4.7-.88-6.87-.59-2.17-1.46-4.06-2.61-5.67-1.15-1.61-2.61-2.87-4.38-3.78-1.77-.91-3.83-1.37-6.19-1.37-2.52,0-4.66.47-6.43,1.41-1.77.94-3.23,2.2-4.38,3.78-1.15,1.58-1.98,3.44-2.49,5.59-.51,2.14-.76,4.45-.76,6.91v.48c0,2.57.28,4.94.84,7.11s1.43,4.06,2.61,5.67c1.18,1.61,2.68,2.85,4.5,3.74,1.82.88,3.96,1.33,6.43,1.33s4.39-.44,6.11-1.33Z"/><path d="m395.86,128.53h4.34v9.08h.08c.54-1.5,1.3-2.85,2.29-4.06.99-1.21,2.14-2.2,3.46-2.97,1.31-.78,2.77-1.38,4.38-1.81,1.61-.43,3.29-.64,5.06-.64h1.12v4.18h-1.04c-2.68,0-4.98.38-6.91,1.12-1.93.75-3.52,1.8-4.78,3.13-1.26,1.34-2.18,2.92-2.77,4.74-.59,1.82-.88,3.8-.88,5.95v23.07h-4.34v-41.79Z"/><path d="m423.43,114.06h4.34v56.26h-4.34v-56.26Z"/><path d="m447.46,169.64c-2.2-1.04-3.99-2.52-5.38-4.42-1.39-1.9-2.42-4.15-3.09-6.75-.67-2.6-1-5.43-1-8.48v-.48c0-3.16.35-6.08,1.04-8.76.7-2.68,1.77-5,3.21-6.95,1.45-1.96,3.25-3.47,5.43-4.54,2.17-1.07,4.67-1.61,7.51-1.61,1.45,0,2.89.15,4.34.44,1.45.29,2.81.78,4.1,1.45s2.46,1.58,3.54,2.73c1.07,1.15,1.96,2.59,2.65,4.3h.08v-22.5h4.26v56.26h-4.26v-8.44h-.08c-.64,1.77-1.49,3.26-2.53,4.46-1.04,1.21-2.21,2.17-3.5,2.89s-2.67,1.23-4.14,1.53c-1.47.29-2.96.44-4.46.44-2.95,0-5.52-.52-7.72-1.57Zm15.35-3.86c1.77-1.1,3.19-2.52,4.26-4.26,1.07-1.74,1.81-3.68,2.21-5.83.4-2.14.6-4.29.6-6.43v-.48c0-2.2-.23-4.33-.68-6.39-.46-2.06-1.22-3.91-2.29-5.55-1.07-1.63-2.49-2.95-4.26-3.94-1.77-.99-3.91-1.49-6.43-1.49-2.73,0-5,.55-6.79,1.65-1.8,1.1-3.2,2.52-4.22,4.26s-1.73,3.67-2.13,5.79c-.4,2.12-.6,4.22-.6,6.31v.48c0,2.14.2,4.25.6,6.31.4,2.06,1.14,3.93,2.21,5.59,1.07,1.66,2.48,3.01,4.22,4.06s3.92,1.57,6.55,1.57,4.98-.55,6.75-1.65Z"/><path d="m507.73,170.32v-56.26h7.72l20.25,54.01h-3.05l20.42-54.01h7.15v56.26h-4.66v-47.58l.24-4.34-19.77,51.92h-4.02l-19.85-51.92h.08l.16,4.34v47.58h-4.66Z"/><path d="m582.04,169.64c-2.33-1.04-4.29-2.52-5.87-4.42-1.58-1.9-2.77-4.17-3.58-6.79s-1.21-5.55-1.21-8.76v-.48c0-3.16.4-6.07,1.21-8.72.8-2.65,2-4.92,3.58-6.79,1.58-1.88,3.52-3.35,5.83-4.42,2.3-1.07,4.96-1.61,7.96-1.61s5.65.54,7.96,1.61c2.3,1.07,4.25,2.56,5.83,4.46,1.58,1.9,2.77,4.17,3.58,6.79.8,2.63,1.21,5.52,1.21,8.68v.48c0,3.11-.36,5.99-1.08,8.64s-1.84,4.93-3.33,6.83c-1.5,1.9-3.42,3.39-5.75,4.46s-5.1,1.61-8.32,1.61c-3,0-5.67-.52-8-1.57Zm14.35-3.54c1.71-.88,3.13-2.12,4.26-3.7,1.12-1.58,1.97-3.46,2.53-5.63.56-2.17.84-4.57.84-7.19v-.48c0-2.41-.29-4.7-.88-6.87-.59-2.17-1.46-4.06-2.61-5.67-1.15-1.61-2.61-2.87-4.38-3.78-1.77-.91-3.83-1.37-6.19-1.37-2.52,0-4.66.47-6.43,1.41-1.77.94-3.23,2.2-4.38,3.78-1.15,1.58-1.98,3.44-2.49,5.59-.51,2.14-.76,4.45-.76,6.91v.48c0,2.57.28,4.94.84,7.11s1.43,4.06,2.61,5.67c1.18,1.61,2.68,2.85,4.5,3.74,1.82.88,3.96,1.33,6.43,1.33s4.39-.44,6.11-1.33Z"/><path d="m625.96,169.64c-2.2-1.04-3.99-2.52-5.38-4.42-1.39-1.9-2.42-4.15-3.09-6.75-.67-2.6-1-5.43-1-8.48v-.48c0-3.16.35-6.08,1.04-8.76.7-2.68,1.77-5,3.21-6.95,1.45-1.96,3.25-3.47,5.43-4.54,2.17-1.07,4.67-1.61,7.51-1.61,1.45,0,2.89.15,4.34.44,1.45.29,2.81.78,4.1,1.45s2.46,1.58,3.54,2.73c1.07,1.15,1.96,2.59,2.65,4.3h.08v-22.5h4.26v56.26h-4.26v-8.44h-.08c-.64,1.77-1.49,3.26-2.53,4.46-1.04,1.21-2.21,2.17-3.5,2.89s-2.67,1.23-4.14,1.53c-1.47.29-2.96.44-4.46.44-2.95,0-5.52-.52-7.72-1.57Zm15.35-3.86c1.77-1.1,3.19-2.52,4.26-4.26,1.07-1.74,1.81-3.68,2.21-5.83.4-2.14.6-4.29.6-6.43v-.48c0-2.2-.23-4.33-.68-6.39-.46-2.06-1.22-3.91-2.29-5.55-1.07-1.63-2.49-2.95-4.26-3.94-1.77-.99-3.91-1.49-6.43-1.49-2.73,0-5,.55-6.79,1.65-1.8,1.1-3.2,2.52-4.22,4.26s-1.73,3.67-2.13,5.79c-.4,2.12-.6,4.22-.6,6.31v.48c0,2.14.2,4.25.6,6.31.4,2.06,1.14,3.93,2.21,5.59,1.07,1.66,2.48,3.01,4.22,4.06s3.92,1.57,6.55,1.57,4.98-.55,6.75-1.65Z"/><path d="m673.5,169.64c-2.38-1.04-4.37-2.53-5.95-4.46-1.58-1.93-2.75-4.23-3.5-6.91-.75-2.68-1.13-5.65-1.13-8.92v-.48c0-3.11.38-5.96,1.13-8.56.75-2.6,1.9-4.83,3.46-6.71,1.55-1.88,3.5-3.34,5.83-4.38,2.33-1.04,5.02-1.57,8.08-1.57,2.68,0,5.12.47,7.31,1.41,2.2.94,4.06,2.22,5.59,3.86,1.53,1.64,2.71,3.62,3.54,5.95.83,2.33,1.25,4.89,1.25,7.68v3.94h-33.43v-3.78h29.09v-.8c0-2.36-.35-4.43-1.04-6.23-.7-1.79-1.65-3.29-2.85-4.5s-2.63-2.13-4.26-2.77c-1.63-.64-3.36-.96-5.18-.96-2.36,0-4.41.4-6.15,1.21s-3.2,1.93-4.38,3.38c-1.18,1.45-2.05,3.19-2.61,5.22-.56,2.04-.84,4.31-.84,6.83v1.61c0,2.41.27,4.7.8,6.87.54,2.17,1.39,4.06,2.57,5.67,1.18,1.61,2.69,2.88,4.54,3.82,1.85.94,4.11,1.41,6.79,1.41,1.88,0,3.56-.24,5.06-.72,1.5-.48,2.77-1.12,3.82-1.93s1.85-1.74,2.41-2.81c.56-1.07.84-2.2.84-3.38v-.48h4.1v.48c0,1.77-.38,3.43-1.12,4.98-.75,1.55-1.85,2.89-3.3,4.02-1.45,1.12-3.17,2.01-5.18,2.65-2.01.64-4.25.96-6.71.96-3.32,0-6.18-.52-8.56-1.57Z"/><path d="m709.38,114.06h4.34v56.26h-4.34v-56.26Z"/><path d="m733.41,170.36c-2.04-.56-3.79-1.39-5.26-2.49-1.47-1.1-2.65-2.48-3.54-4.14-.88-1.66-1.33-3.56-1.33-5.71v-.48h4.26v.48c0,1.45.31,2.75.92,3.9.62,1.15,1.46,2.13,2.53,2.93,1.07.8,2.38,1.43,3.94,1.89,1.55.46,3.27.68,5.14.68,1.71,0,3.25-.15,4.62-.44,1.37-.29,2.53-.78,3.5-1.45.96-.67,1.71-1.5,2.25-2.49.54-.99.8-2.18.8-3.58v-.56c0-1.5-.39-2.72-1.17-3.66-.78-.94-1.78-1.7-3.01-2.29-1.23-.59-2.65-1.07-4.26-1.45-1.61-.37-3.23-.74-4.86-1.08-1.64-.35-3.24-.76-4.82-1.25-1.58-.48-2.99-1.14-4.22-1.97-1.23-.83-2.24-1.89-3.01-3.17-.78-1.29-1.17-2.92-1.17-4.9v-.56c0-2.04.44-3.76,1.33-5.18.88-1.42,2.05-2.54,3.5-3.38,1.45-.83,3.07-1.43,4.86-1.81,1.79-.37,3.6-.56,5.42-.56,1.93,0,3.8.23,5.63.68,1.82.46,3.44,1.15,4.86,2.09,1.42.94,2.57,2.17,3.46,3.7.88,1.53,1.33,3.39,1.33,5.59v.48h-4.26v-.48c0-1.29-.25-2.42-.76-3.42-.51-.99-1.25-1.86-2.21-2.61-.96-.75-2.13-1.31-3.5-1.69-1.37-.37-2.91-.56-4.62-.56-1.55,0-2.97.15-4.26.44-1.29.3-2.4.72-3.34,1.29-.94.56-1.66,1.29-2.17,2.17-.51.88-.76,1.94-.76,3.17v.48c0,1.45.39,2.63,1.17,3.54.78.91,1.78,1.66,3.01,2.25,1.23.59,2.64,1.07,4.22,1.45,1.58.38,3.19.75,4.82,1.12,1.63.38,3.25.8,4.86,1.29s3.03,1.14,4.26,1.97c1.23.83,2.24,1.88,3.01,3.13.78,1.26,1.17,2.88,1.17,4.86v.48c0,2.36-.46,4.31-1.37,5.87-.91,1.55-2.09,2.8-3.54,3.74-1.45.94-3.12,1.59-5.02,1.97-1.9.37-3.9.56-5.99.56-2.25,0-4.39-.28-6.43-.84Z"/></svg>